<svg id="Calque_1" data-name="Calque 1" xmlns="http://www.w3.org/2000/svg" viewBox="0 0 893.58 289.66"><defs><style>.cls-1{fill:#ee7d00;}.cls-2{fill:#164193;}</style></defs><path class="cls-1" d="M228.12,543.94c.59-.68,1-1.15,1.41-1.64L288,467.81q26.53-33.82,53-67.66a13.25,13.25,0,0,1,10.14-5.42,12.74,12.74,0,0,1,6.34,1.44,13.39,13.39,0,0,1,5.32,19.64c-1.76,2.52-3.71,4.91-5.61,7.34q-45.33,58.13-90.69,116.24c-7.76,9.94-15.49,19.9-23.31,29.8a7,7,0,0,0-1.58,4.7q.06,47.6,0,95.2a24.69,24.69,0,0,1-.35,4.94A13.54,13.54,0,0,1,215,674a25.14,25.14,0,0,1-.33-4.59q0-31.35,0-62.69c0-11.08,0-22.15,0-33.22a6.17,6.17,0,0,0-1.37-4.06q-36.11-47.09-72.16-94.19-22.19-29-44.4-57.95a14.31,14.31,0,0,1-2.8-12.85c1.2-4.75,5.92-8.76,10.72-9.48,5.55-.84,9.77,1.15,13.12,5.53q20.64,26.94,41.35,53.81l67.56,87.86c.4.51.83,1,1.46,1.75" transform="translate(-93.42 -394.72)"/><path class="cls-2" d="M747.61,438.16c29.3.2,54.9,10.08,77.15,29C844,483.44,857.05,503.62,863.54,528a130.2,130.2,0,0,1,4.2,27.13A122.67,122.67,0,0,1,818,659.82a119.88,119.88,0,0,1-49.79,21.43,123,123,0,0,1-14.45,1.7c-2,.13-4,.41-6,.38-27.55-.34-52.5-8.38-74.44-25.28a12.14,12.14,0,0,1-1-.77,4,4,0,0,1-.42-5.72c.18-.23.4-.44.6-.65,4.5-4.54,9-9.08,13.5-13.64,1-1.08,2.24-1.86,3.76-1.51a7.84,7.84,0,0,1,2.68,1.26,101.85,101.85,0,0,0,18.61,10.66,85.39,85.39,0,0,0,24.38,6.68c52.58,6,91.6-28.8,102.17-69.66A95,95,0,0,0,785,474.21a91.69,91.69,0,0,0-25.4-7,96.56,96.56,0,0,0-20.39-.56A86.49,86.49,0,0,0,703,477.76c-4.15,2.38-8,5.24-12,7.85a9.55,9.55,0,0,1-2.66,1.31,4.29,4.29,0,0,1-4.3-1.5l-9.63-9.73c-1.08-1.09-2.17-2.18-3.24-3.28-2.5-2.56-2.37-5.41.41-7.63a118.07,118.07,0,0,1,40.68-21.57A113.38,113.38,0,0,1,735.38,439c4.07-.31,8.15-.53,12.23-.8" transform="translate(-93.42 -394.72)"/><path class="cls-2" d="M322.15,559.23c.4-24.32,7-48.45,22.45-69.64,16.59-22.81,38.27-38.8,65.52-46.85a109.88,109.88,0,0,1,20.37-3.82,130.48,130.48,0,0,1,22-.22,116.23,116.23,0,0,1,65.85,25.9c.19.15.37.29.55.45a4.58,4.58,0,0,1,.37,7q-6.63,6.81-13.37,13.51c-1.92,1.91-4.14,2-6.4.29a103.33,103.33,0,0,0-15.44-9.77,87.13,87.13,0,0,0-31.3-9.23c-54-5.27-91.45,32.28-100.67,71.34a97.22,97.22,0,0,0-2.67,20.91,94.77,94.77,0,0,0,50.86,85.73,92.51,92.51,0,0,0,29,9.16,94.83,94.83,0,0,0,19.84.91,87.3,87.3,0,0,0,37.8-11.16,128.56,128.56,0,0,0,10.93-7,4.62,4.62,0,0,1,6.34.5q6.57,6.87,13.38,13.52c2.43,2.37,1.87,5.27-.51,7.09a119.11,119.11,0,0,1-49.57,22.77c-4.51.89-9.13,1.31-13.7,1.94a59.9,59.9,0,0,1-9.37.74,130,130,0,0,1-36.54-5.55,121.86,121.86,0,0,1-81.52-85.15,131.41,131.41,0,0,1-4.18-33.44" transform="translate(-93.42 -394.72)"/><path class="cls-1" d="M595.08,540.73c.78-.75,1.43-1.35,2-2l54.21-54.84c.46-.46.9-.94,1.39-1.37a3.5,3.5,0,0,1,4.82,0c.22.19.42.41.63.62q6.63,6.69,13.24,13.4c2.34,2.38,2.34,4,0,6.36q-23.35,23.63-46.73,47.24l-8.74,8.85c-.41.42-.79.86-1.31,1.43.42.49.76.94,1.16,1.34q24.3,24.57,48.61,49.13c2.37,2.4,4.76,4.79,7.12,7.2,2.17,2.21,2.2,4,.05,6.12q-6.72,6.84-13.5,13.64c-2.16,2.17-3.74,2.18-5.9,0q-25.75-26-51.49-52c-1.62-1.64-3.25-3.29-4.88-4.92a5.54,5.54,0,0,0-.88-.58c-.56.54-1.11,1-1.64,1.58l-54.61,55.2a19.47,19.47,0,0,1-1.53,1.48,3.12,3.12,0,0,1-4.35,0c-.36-.3-.69-.65-1-1l-13-13.13c-.21-.21-.43-.41-.63-.63a3.52,3.52,0,0,1,0-5.23c.63-.7,1.31-1.37,2-2l54-54.56c.45-.46.87-.93,1.43-1.53-.55-.6-1-1.13-1.48-1.62l-54.84-55.47c-.38-.38-.77-.74-1.12-1.14a3.46,3.46,0,0,1,0-5.09c1.15-1.26,2.39-2.46,3.6-3.68,3.46-3.5,7-6.92,10.34-10.51a4,4,0,0,1,5.9,0q21.72,22.11,43.58,44.11l12.24,12.38c.37.37.78.7,1.35,1.21" transform="translate(-93.42 -394.72)"/><path class="cls-1" d="M927.49,510.37q0,48.58,0,97.17a54.76,54.76,0,0,0,3.44,20.17,45.48,45.48,0,0,0,22.91,25.09,36,36,0,0,0,11.89,3.35c2.94.34,5.89.48,8.83.73a13.5,13.5,0,0,1,11.93,9.91,13.93,13.93,0,0,1-5.8,15.52,11.18,11.18,0,0,1-6,2c-10.26.1-20.31-1.26-29.81-5.3a70.32,70.32,0,0,1-30.12-24.12A78,78,0,0,1,901.59,623a73.53,73.53,0,0,1-1.15-13.41q0-99.75,0-199.48a20.72,20.72,0,0,1,.19-4.25c1.2-5.61,4.62-9.29,10.19-10.68a13.41,13.41,0,0,1,16.6,12.36c.06,1.12,0,2.24,0,3.37v99.47" transform="translate(-93.42 -394.72)"/></svg>