<svg width="270" height="89" viewBox="0 0 270 89" fill="none" xmlns="http://www.w3.org/2000/svg">
<g clip-path="url(#clip0_493_3144)">
<path d="M198.671 12.47C189.548 12.4823 180.774 15.9768 174.141 22.24L180.311 28.42C184.453 25.1135 189.444 23.0435 194.711 22.4482C199.977 21.8528 205.305 22.7564 210.08 25.0548C214.856 27.3532 218.886 30.9531 221.706 35.4404C224.526 39.9277 226.023 45.12 226.023 50.42C226.023 55.72 224.526 60.9123 221.706 65.3996C218.886 69.8869 214.856 73.4869 210.08 75.7853C205.305 78.0837 199.977 78.9872 194.711 78.3919C189.444 77.7965 184.453 75.7265 180.311 72.42L173.971 78.77C180.623 85.1077 189.453 88.6513 198.641 88.67C218.921 88.67 235.361 71.61 235.361 50.56C235.361 29.51 218.951 12.47 198.671 12.47Z" fill="white"/>
<path d="M176.6 68.83L176.08 68.34L162.13 54.34L158.35 50.56L162.13 46.78L175.08 33.86L176.74 32.19L176.55 32L170.55 26L170.46 25.91L152.08 44.34L133.56 25.82L128 31.37L127.43 31.94L131.14 35.65L142.14 46.65L145.96 50.47L142.08 54.34L131.83 64.59L127.48 68.93L128.3 69.74L133.64 75.09L133.72 75.17L152.14 56.76L170.39 75.01L176.5 68.9L176.6 68.83Z" fill="#F07F19"/>
<path d="M105.8 80.14C101.11 80.1342 96.4905 79.0059 92.3264 76.8496C88.1623 74.6933 84.5748 71.5716 81.8638 67.7454C79.1528 63.9192 77.3971 59.4997 76.7433 54.8562C76.0895 50.2127 76.5567 45.4801 78.1059 41.0541C79.655 36.6281 82.2411 32.6372 85.6479 29.4149C89.0548 26.1927 93.1835 23.8328 97.6888 22.5323C102.194 21.2319 106.945 21.0289 111.545 21.9401C116.145 22.8513 120.46 24.8503 124.13 27.77L129.89 22.01C123.277 15.8786 114.597 12.465 105.58 12.45C85.2996 12.45 68.8496 29.51 68.8496 50.55C68.8496 71.59 85.2996 88.66 105.58 88.66C114.695 88.6347 123.457 85.1334 130.08 78.87L124.63 73.34C119.338 77.7331 112.677 80.1384 105.8 80.14Z" fill="white"/>
<path d="M265.891 79.51C251.191 79.51 250.571 70.35 250.551 69.19V4.66C250.578 4.47776 250.594 4.29411 250.601 4.10999C250.627 3.58455 250.547 3.0592 250.364 2.56583C250.182 2.07245 249.901 1.62136 249.538 1.24002C249.176 0.858682 248.739 0.555052 248.256 0.347565C247.772 0.140078 247.252 0.0330811 246.726 0.0330811C246.2 0.0330811 245.679 0.140078 245.196 0.347565C244.712 0.555052 244.276 0.858682 243.913 1.24002C243.551 1.62136 243.27 2.07245 243.087 2.56583C242.904 3.0592 242.824 3.58455 242.851 4.10999C242.857 4.29411 242.874 4.47776 242.901 4.66V70.85H242.961C244.241 90.17 265.961 87.02 265.961 87.02C266.923 86.9703 267.83 86.553 268.493 85.8543C269.157 85.1555 269.527 84.2286 269.527 83.265C269.527 82.3013 269.157 81.3745 268.493 80.6757C267.83 79.977 266.923 79.5597 265.961 79.51H265.891Z" fill="white"/>
<path d="M44.2497 84.44V52.74L81.4897 6.79998C81.9065 6.41574 82.2343 5.94506 82.4501 5.42086C82.6659 4.89667 82.7645 4.33162 82.7391 3.76532C82.7136 3.19901 82.5647 2.64511 82.3027 2.14239C82.0408 1.63967 81.6721 1.20029 81.2225 0.854976C80.773 0.509665 80.2534 0.266784 79.7001 0.143337C79.1468 0.0198888 78.5732 0.0188595 78.0195 0.140315C77.4658 0.261771 76.9453 0.502771 76.4945 0.846462C76.0437 1.19015 75.6735 1.62822 75.4097 2.13L40.5397 45.13L7.3397 2.04C7.08219 1.5304 6.71513 1.08407 6.26481 0.733058C5.81448 0.382043 5.29206 0.135017 4.73502 0.00970011C4.17798 -0.115617 3.6001 -0.116107 3.04284 0.00823527C2.48557 0.132577 1.96272 0.37868 1.51178 0.728908C1.06085 1.07914 0.692999 1.52481 0.434605 2.03396C0.176211 2.54311 0.0336801 3.10312 0.0172314 3.67385C0.000782717 4.24458 0.110825 4.81189 0.339467 5.33508C0.568108 5.85827 0.909678 6.32436 1.3397 6.69998L36.6897 52.57V84.44C36.6794 84.5798 36.6794 84.7202 36.6897 84.86C36.7401 85.8484 37.1682 86.7798 37.8856 87.4616C38.603 88.1434 39.555 88.5236 40.5447 88.5236C41.5344 88.5236 42.4864 88.1434 43.2038 87.4616C43.9212 86.7798 44.3493 85.8484 44.3997 84.86C44.41 84.7202 44.41 84.5798 44.3997 84.44H44.2497Z" fill="white"/>
</g>
<defs>
<clipPath id="clip0_493_3144">
<rect width="269.64" height="88.7" fill="white"/>
</clipPath>
</defs>
</svg>
