<?xml version="1.0" standalone="no"?>
<svg xmlns:xlink="http://www.w3.org/1999/xlink" id="wave" style="transform:rotate(0deg); transition: 0.3s" viewBox="0 0 1440 490" version="1.1" xmlns="http://www.w3.org/2000/svg"><defs><linearGradient id="sw-gradient-0" x1="0" x2="0" y1="1" y2="0"><stop stop-color="rgba(26, 64, 128, 1)" offset="0%"/><stop stop-color="rgba(26, 64, 128, 0.39)" offset="100%"/></linearGradient></defs><path style="transform:translate(0, 0px); opacity:1" fill="url(#sw-gradient-0)" d="M0,343L120,359.3C240,376,480,408,720,375.7C960,343,1200,245,1440,236.8C1680,229,1920,310,2160,359.3C2400,408,2640,425,2880,416.5C3120,408,3360,376,3600,375.7C3840,376,4080,408,4320,367.5C4560,327,4800,212,5040,171.5C5280,131,5520,163,5760,212.3C6000,261,6240,327,6480,326.7C6720,327,6960,261,7200,228.7C7440,196,7680,196,7920,220.5C8160,245,8400,294,8640,326.7C8880,359,9120,376,9360,383.8C9600,392,9840,392,10080,400.2C10320,408,10560,425,10800,416.5C11040,408,11280,376,11520,310.3C11760,245,12000,147,12240,163.3C12480,180,12720,310,12960,334.8C13200,359,13440,278,13680,245C13920,212,14160,229,14400,269.5C14640,310,14880,376,15120,334.8C15360,294,15600,147,15840,138.8C16080,131,16320,261,16560,318.5C16800,376,17040,359,17160,351.2L17280,343L17280,490L17160,490C17040,490,16800,490,16560,490C16320,490,16080,490,15840,490C15600,490,15360,490,15120,490C14880,490,14640,490,14400,490C14160,490,13920,490,13680,490C13440,490,13200,490,12960,490C12720,490,12480,490,12240,490C12000,490,11760,490,11520,490C11280,490,11040,490,10800,490C10560,490,10320,490,10080,490C9840,490,9600,490,9360,490C9120,490,8880,490,8640,490C8400,490,8160,490,7920,490C7680,490,7440,490,7200,490C6960,490,6720,490,6480,490C6240,490,6000,490,5760,490C5520,490,5280,490,5040,490C4800,490,4560,490,4320,490C4080,490,3840,490,3600,490C3360,490,3120,490,2880,490C2640,490,2400,490,2160,490C1920,490,1680,490,1440,490C1200,490,960,490,720,490C480,490,240,490,120,490L0,490Z"/></svg>