<svg xmlns="http://www.w3.org/2000/svg" xmlns:xlink="http://www.w3.org/1999/xlink" viewBox="0 0 672.86 412"><defs><style>.cls-1{fill:none;}.cls-14,.cls-2,.cls-3,.cls-4{fill:#ecf1f7;}.cls-2{opacity:0.81;}.cls-3,.cls-9{opacity:0.47;}.cls-28,.cls-5,.cls-6{fill:#1a4080;}.cls-5{opacity:0.79;}.cls-34,.cls-6,.cls-7,.cls-8{opacity:0.58;}.cls-45,.cls-46,.cls-7{fill:#f07f19;}.cls-40,.cls-44,.cls-8{fill:#3e479b;}.cls-10{fill:#fff;}.cls-11{opacity:0.51;}.cls-12{fill:#143e7c;}.cls-13{fill:#1e4987;}.cls-14{opacity:0.03;}.cls-15,.cls-16,.cls-29{fill:#599af2;}.cls-16{opacity:0.1;}.cls-17{fill:#042556;}.cls-17,.cls-27,.cls-30,.cls-33,.cls-41{opacity:0.89;}.cls-18{clip-path:url(#clip-path);}.cls-19,.cls-25,.cls-26,.cls-34,.cls-36,.cls-37{fill:#ef929c;}.cls-20{fill:#b27b84;}.cls-21{fill:#373449;}.cls-22{fill:#33322f;opacity:0.25;}.cls-23,.cls-32{fill:#4c65ba;}.cls-24{fill:#f9dcd2;}.cls-25{opacity:0.64;}.cls-26{opacity:0.17;}.cls-27{fill:#4176c4;}.cls-29{opacity:0.21;}.cls-31{fill:#042a60;}.cls-32{opacity:0.35;}.cls-33{fill:#042b63;}.cls-35{fill:#8f8f9b;}.cls-36{opacity:0.27;}.cls-37{opacity:0.32;}.cls-38{fill:#042c66;}.cls-39{fill:#ef1d32;}.cls-40{opacity:0.53;}.cls-41{fill:#2f4e7c;}.cls-42{fill:#1d385e;}.cls-43{fill:#124ca0;}.cls-46{opacity:0.39;}</style><clipPath id="clip-path" transform="translate(-38.49 -34)"><path class="cls-1" d="M391.38,225.31V120.08a11.44,11.44,0,0,1,11.45-11.45H486.3L490,49l77-4,1.53,63.63h59.11a11.45,11.45,0,0,1,11.45,11.45V225.31a11.45,11.45,0,0,1-11.45,11.44H402.83A11.44,11.44,0,0,1,391.38,225.31Z"/></clipPath></defs><g id="BACKGROUND"><path class="cls-2" d="M48.18,237.2a25.15,25.15,0,0,1-4.38-35.3c8.54-11,30.28-20.53,41.23-12s-1.83,26.16-4,39.88C78,248.92,59.13,245.73,48.18,237.2Z" transform="translate(-38.49 -34)"/><path class="cls-3" d="M667.92,306.48a18.11,18.11,0,0,1,12,22.66c-3,9.57-15.15,21.57-24.72,18.61s-5.45-18.09-7.48-27.9C644.85,306.18,658.35,303.52,667.92,306.48Z" transform="translate(-38.49 -34)"/><path class="cls-3" d="M650.72,91.57a25.66,25.66,0,0,1-32.08,16.93c-13.54-4.18-30.52-21.45-26.34-35s25.61-7.71,39.48-10.58C651.13,58.92,654.9,78,650.72,91.57Z" transform="translate(-38.49 -34)"/><path class="cls-3" d="M618.31,408.84c10.52-24.6,20-42.79,8-74.09-9-23.34,15.42-42.56,24.86-64.29,8.4-19.33,11.17-42.59,9.12-63.65-2.8-28.77-16.26-57.58-39.57-78.17-36.33-32.09-91.27-40.17-139.43-32.76-20.17,3.11-40.18,8.61-60.83,6.88-30.12-2.53-56.66-19.84-84.08-32.54C299,52.94,256.22,43.64,216.53,51.16c-45,8.53-81.9,40.73-86.3,83.46-2,19.36,18.27,53.47,11.88,71.82-6.49,18.61-53.87,75.61-52.7,119,1.33,49.34,15.38,59.85,34.33,88.58C124.39,415,612.63,422.15,618.31,408.84Z" transform="translate(-38.49 -34)"/><path class="cls-4" d="M586.22,402.07a100.92,100.92,0,0,0,16.19-38c5.07-25.23-3.06-46.75-5.09-71.49-1.92-23.42,6.39-43.12,11-65.42,4.11-19.86,2.74-42.34-2.42-61.85-7-26.64-23.25-51.31-46.6-66.35-36.4-23.43-84.93-20.67-125.13-4.55-16.84,6.75-33.15,15.73-51.18,18-26.3,3.31-51.9-8-77.52-14.83-34.88-9.26-73.16-9.94-106.07,4.67-37.3,16.57-63.83,54-60.73,95.16,1.4,18.66,8.59,37.08,6,55.62-2.58,18.81-13.75,34.54-19.66,52.25-9.46,28.31-8.86,72.2,12.06,95.75C137.83,401.88,585.68,402.85,586.22,402.07Z" transform="translate(-38.49 -34)"/><ellipse class="cls-5" cx="326.92" cy="380.02" rx="246.91" ry="31.98"/><circle class="cls-6" cx="642.01" cy="233.5" r="4.5"/><circle class="cls-6" cx="303.01" cy="4.5" r="4.5"/><circle class="cls-7" cx="610.01" cy="358.5" r="3.5"/><circle class="cls-7" cx="67.01" cy="77.5" r="4.5"/><circle class="cls-8" cx="33.01" cy="246.5" r="3.5"/><circle class="cls-8" cx="38.01" cy="99.5" r="1.5"/><path class="cls-7" d="M462.46,49.22a5.4,5.4,0,1,1-4.16-6.42A5.39,5.39,0,0,1,462.46,49.22Z" transform="translate(-38.49 -34)"/><path class="cls-7" d="M53.46,309.22a5.4,5.4,0,1,1-4.16-6.42A5.39,5.39,0,0,1,53.46,309.22Z" transform="translate(-38.49 -34)"/><path class="cls-8" d="M415.36,82A1.8,1.8,0,1,1,414,79.89,1.8,1.8,0,0,1,415.36,82Z" transform="translate(-38.49 -34)"/></g><g id="OBJECTS"><g class="cls-9"><path class="cls-4" d="M125.77,89.32a3.56,3.56,0,0,1-2.53-1.07l-8.11-8.11a1.57,1.57,0,0,0-1.14-.47H104a5,5,0,0,1-5-5V56a5,5,0,0,1,5-5h32a5,5,0,0,1,5,5V74.66a5,5,0,0,1-5,5h-5a1.61,1.61,0,0,0-1.61,1.61V85.7A3.57,3.57,0,0,1,127.18,89,3.69,3.69,0,0,1,125.77,89.32ZM104,53a3,3,0,0,0-3,3V74.66a3,3,0,0,0,3,3h10a3.57,3.57,0,0,1,2.55,1l8.12,8.12a1.55,1.55,0,0,0,1.75.35,1.58,1.58,0,0,0,1-1.49V81.28A3.61,3.61,0,0,1,131,77.67h5a3,3,0,0,0,3-3V56a3,3,0,0,0-3-3Z" transform="translate(-38.49 -34)"/><path class="cls-4" d="M110.5,68.5a3,3,0,1,1,3-3A3,3,0,0,1,110.5,68.5Zm0-5a2,2,0,1,0,2,2A2,2,0,0,0,110.5,63.5Z" transform="translate(-38.49 -34)"/><path class="cls-4" d="M120,69a3,3,0,1,1,3-3A3,3,0,0,1,120,69Zm0-5a2,2,0,1,0,2,2A2,2,0,0,0,120,64Z" transform="translate(-38.49 -34)"/><path class="cls-4" d="M129,69a3,3,0,1,1,3-3A3,3,0,0,1,129,69Zm0-5a2,2,0,1,0,2,2A2,2,0,0,0,129,64Z" transform="translate(-38.49 -34)"/></g><path class="cls-10" d="M576.2,371.07a2.62,2.62,0,0,1-1.64-2.46v-3.26a1.19,1.19,0,0,0-1.19-1.19H569.7a3.7,3.7,0,0,1-3.7-3.7V346.7a3.7,3.7,0,0,1,3.7-3.7h23.6a3.7,3.7,0,0,1,3.7,3.7v13.76a3.7,3.7,0,0,1-3.7,3.7h-7.37a1.18,1.18,0,0,0-.84.35l-6,6a2.67,2.67,0,0,1-1.87.78A2.72,2.72,0,0,1,576.2,371.07Zm-6.5-26.59a2.21,2.21,0,0,0-2.22,2.22v13.76a2.21,2.21,0,0,0,2.22,2.22h3.67a2.67,2.67,0,0,1,2.66,2.67v3.26a1.19,1.19,0,0,0,2,.84l6-6a2.65,2.65,0,0,1,1.88-.78h7.37a2.21,2.21,0,0,0,2.22-2.22V346.7a2.21,2.21,0,0,0-2.22-2.22Z" transform="translate(-38.49 -34)"/><path class="cls-10" d="M586.3,353.7a2.22,2.22,0,1,1,2.21,2.22A2.21,2.21,0,0,1,586.3,353.7Zm.74,0a1.48,1.48,0,1,0,1.47-1.47A1.47,1.47,0,0,0,587,353.7Z" transform="translate(-38.49 -34)"/><path class="cls-10" d="M579.29,354.07a2.21,2.21,0,1,1,2.21,2.22A2.21,2.21,0,0,1,579.29,354.07Zm.73,0a1.48,1.48,0,1,0,1.48-1.47A1.48,1.48,0,0,0,580,354.07Z" transform="translate(-38.49 -34)"/><path class="cls-10" d="M572.64,354.07a2.22,2.22,0,1,1,2.22,2.22A2.22,2.22,0,0,1,572.64,354.07Zm.74,0a1.48,1.48,0,1,0,1.48-1.47A1.48,1.48,0,0,0,573.38,354.07Z" transform="translate(-38.49 -34)"/><path class="cls-10" d="M173.37,318.56h-28.1a3.77,3.77,0,0,1-3.77-3.77V294.16a3.77,3.77,0,0,1,3.77-3.77h28.1a3.77,3.77,0,0,1,3.77,3.77v20.63A3.77,3.77,0,0,1,173.37,318.56Zm-28.1-27.17a2.77,2.77,0,0,0-2.77,2.77v20.63a2.78,2.78,0,0,0,2.77,2.77h28.1a2.78,2.78,0,0,0,2.77-2.77V294.16a2.77,2.77,0,0,0-2.77-2.77Z" transform="translate(-38.49 -34)"/><path class="cls-10" d="M186.43,313.34l-.23,0-9.39-2.5a.91.91,0,0,1-.67-.87V299a.9.9,0,0,1,.67-.86l9.39-2.51a.91.91,0,0,1,.78.16.9.9,0,0,1,.35.71v15.94a.89.89,0,0,1-.9.9Zm0-1h0Zm-9.32-2.49,9.23,2.46,0-15.69-9.19,2.45Zm-.07,0Z" transform="translate(-38.49 -34)"/><path class="cls-10" d="M153.21,291.16a.5.5,0,0,1-.5-.5V288.5h-5.79v2.16a.51.51,0,0,1-.5.5.5.5,0,0,1-.5-.5V288.4a.89.89,0,0,1,.89-.9h6a.9.9,0,0,1,.9.9v2.26A.51.51,0,0,1,153.21,291.16Z" transform="translate(-38.49 -34)"/><path class="cls-10" d="M161,291.16a.5.5,0,0,1-.5-.5V288.9h-4.77v1.76a.51.51,0,0,1-.5.5.5.5,0,0,1-.5-.5v-1.92a.84.84,0,0,1,.83-.84h5.1a.85.85,0,0,1,.84.84v1.92A.5.5,0,0,1,161,291.16Z" transform="translate(-38.49 -34)"/><path class="cls-10" d="M158.64,313.29a9,9,0,1,1,9-9A9,9,0,0,1,158.64,313.29Zm0-17a8,8,0,1,0,8,8A8,8,0,0,0,158.64,296.31Z" transform="translate(-38.49 -34)"/><path class="cls-10" d="M157.17,309a.71.71,0,0,1-.32-.07.73.73,0,0,1-.41-.65v-7.94a.72.72,0,0,1,1.16-.57l5.19,4a.73.73,0,0,1,0,1.15l-5.19,4A.68.68,0,0,1,157.17,309Zm-.17-.94Zm.44-7.15v6.81l4.45-3.41Z" transform="translate(-38.49 -34)"/><path class="cls-10" d="M170.87,298.69a2.54,2.54,0,1,1,2.54-2.54A2.54,2.54,0,0,1,170.87,298.69Zm0-4.08a1.54,1.54,0,1,0,1.54,1.54A1.54,1.54,0,0,0,170.87,294.61Z" transform="translate(-38.49 -34)"/><path class="cls-10" d="M183.09,308.2a.51.51,0,0,1-.5-.5v-9.51a.5.5,0,0,1,.5-.5.5.5,0,0,1,.5.5v9.51A.5.5,0,0,1,183.09,308.2Z" transform="translate(-38.49 -34)"/><g class="cls-11"><path class="cls-4" d="M696.47,140.25h-31.2a3.77,3.77,0,0,1-3.77-3.77V113.42a3.77,3.77,0,0,1,3.77-3.77h31.2a3.78,3.78,0,0,1,3.78,3.77v23.06A3.78,3.78,0,0,1,696.47,140.25Zm-31.2-29.6a2.77,2.77,0,0,0-2.77,2.77v23.06a2.77,2.77,0,0,0,2.77,2.77h31.2a2.78,2.78,0,0,0,2.78-2.77V113.42a2.78,2.78,0,0,0-2.78-2.77Z" transform="translate(-38.49 -34)"/><path class="cls-4" d="M710.41,134.57l-.24,0-10.23-2.73a.93.93,0,0,1-.69-.91V119a.93.93,0,0,1,.69-.9l10.23-2.73a.9.9,0,0,1,.81.16.94.94,0,0,1,.37.74v17.37a.91.91,0,0,1-.37.74A.9.9,0,0,1,710.41,134.57Zm0-1h0Zm-.08-17.22-10.15,2.7,0,11.85,10.12,2.66Z" transform="translate(-38.49 -34)"/><path class="cls-4" d="M674.21,110.4a.51.51,0,0,1-.5-.5v-2.46l-6.46.06.06,2.4a.5.5,0,0,1-1,0v-2.46a.94.94,0,0,1,.94-.94h6.53a.94.94,0,0,1,.93.94v2.46A.5.5,0,0,1,674.21,110.4Z" transform="translate(-38.49 -34)"/><path class="cls-4" d="M682.72,110.4a.51.51,0,0,1-.5-.5v-2h-5.29v2a.5.5,0,0,1-.5.5.51.51,0,0,1-.5-.5v-2.1a.87.87,0,0,1,.87-.87h5.55a.87.87,0,0,1,.87.87v2.1A.5.5,0,0,1,682.72,110.4Z" transform="translate(-38.49 -34)"/><path class="cls-4" d="M680.13,134.51a9.75,9.75,0,1,1,9.75-9.75A9.76,9.76,0,0,1,680.13,134.51Zm0-18.5a8.75,8.75,0,1,0,8.75,8.75A8.77,8.77,0,0,0,680.13,116Z" transform="translate(-38.49 -34)"/><path class="cls-4" d="M678.52,129.83a.8.8,0,0,1-.33-.08.74.74,0,0,1-.41-.66v-8.65a.73.73,0,0,1,.42-.66.72.72,0,0,1,.77.07l5.66,4.32a.75.75,0,0,1,.29.59.72.72,0,0,1-.3.59L679,129.67A.69.69,0,0,1,678.52,129.83Zm.26-8.87v7.6l5-3.8Zm5.24,4Zm0-.41Z" transform="translate(-38.49 -34)"/><path class="cls-4" d="M693.46,118.6a2.72,2.72,0,1,1,2.71-2.72A2.73,2.73,0,0,1,693.46,118.6Zm0-4.44a1.72,1.72,0,1,0,1.71,1.72A1.73,1.73,0,0,0,693.46,114.16Z" transform="translate(-38.49 -34)"/><path class="cls-4" d="M706.78,129a.5.5,0,0,1-.5-.5V118.1a.5.5,0,0,1,.5-.5.51.51,0,0,1,.5.5v10.36A.5.5,0,0,1,706.78,129Z" transform="translate(-38.49 -34)"/></g><circle class="cls-10" cx="499.49" cy="246.23" r="18.77"/><path class="cls-4" d="M544.83,276.51a6.85,6.85,0,1,1-6.85-6.85A6.85,6.85,0,0,1,544.83,276.51Z" transform="translate(-38.49 -34)"/><path class="cls-4" d="M547.22,290.69c0,.16-18.48.16-18.48,0a9.24,9.24,0,0,1,18.48,0Z" transform="translate(-38.49 -34)"/><rect class="cls-10" x="528.78" y="230.21" width="50.91" height="8.1"/><rect class="cls-10" x="528.78" y="244.57" width="62.66" height="5.22"/><rect class="cls-10" x="528.78" y="256.32" width="62.66" height="5.22"/><circle class="cls-10" cx="161.68" cy="324.23" r="18.77"/><path class="cls-4" d="M193.31,354.51a6.86,6.86,0,1,0,6.86-6.85A6.86,6.86,0,0,0,193.31,354.51Z" transform="translate(-38.49 -34)"/><path class="cls-4" d="M190.92,368.69c0,.16,18.49.16,18.49,0a9.25,9.25,0,0,0-18.49,0Z" transform="translate(-38.49 -34)"/><rect class="cls-10" x="85.47" y="308.21" width="50.91" height="8.1"/><rect class="cls-10" x="73.72" y="322.57" width="62.66" height="5.22"/><rect class="cls-10" x="73.72" y="334.32" width="62.66" height="5.22"/><rect class="cls-12" x="346.79" y="67" width="261.14" height="143.38" rx="16.94"/><rect class="cls-13" x="346.79" y="67" width="261.14" height="143.38" rx="16.94"/><path class="cls-14" d="M389.13,223.81V120.1a16.25,16.25,0,0,1,16.45-16h220.6a16.25,16.25,0,0,1,16.45,16V223.81a16.24,16.24,0,0,1-16.45,16H405.58A16.24,16.24,0,0,1,389.13,223.81Z" transform="translate(-38.49 -34)"/><rect class="cls-10" x="352.89" y="74.63" width="247.71" height="128.13" rx="11.45"/><path class="cls-15" d="M631.77,235.53a4.67,4.67,0,0,0,4.08-2.25,11.41,11.41,0,0,0,3.24-8V120.08A11.43,11.43,0,0,0,633,109.94a7.62,7.62,0,0,0-1.18-.09Z" transform="translate(-38.49 -34)"/><rect class="cls-2" x="362.55" y="82" width="219.96" height="114"/><rect class="cls-16" x="362.55" y="82" width="219.96" height="36"/><path class="cls-17" d="M610.87,101.15h0A1.16,1.16,0,0,1,612,100h7.38a1.16,1.16,0,0,1,1.15,1.15h0a1.15,1.15,0,0,1-1.15,1.15H612A1.15,1.15,0,0,1,610.87,101.15Z" transform="translate(-38.49 -34)"/><path class="cls-17" d="M579.54,244.85h0a1.15,1.15,0,0,1,1.15-1.15h17a1.14,1.14,0,0,1,1.15,1.15h0a1.15,1.15,0,0,1-1.15,1.15h-17A1.16,1.16,0,0,1,579.54,244.85Z" transform="translate(-38.49 -34)"/><path class="cls-17" d="M579.54,101.15h0a1.16,1.16,0,0,1,1.15-1.15h17a1.15,1.15,0,0,1,1.15,1.15h0a1.14,1.14,0,0,1-1.15,1.15h-17A1.15,1.15,0,0,1,579.54,101.15Z" transform="translate(-38.49 -34)"/><path class="cls-17" d="M556.51,101.15h0a1.15,1.15,0,0,1,1.15-1.15h17.05a1.16,1.16,0,0,1,1.15,1.15h0a1.15,1.15,0,0,1-1.15,1.15H557.66A1.14,1.14,0,0,1,556.51,101.15Z" transform="translate(-38.49 -34)"/><g class="cls-18"><path class="cls-19" d="M566.29,172.54c-1.39-.34-2.72-.65-4-.93A63.81,63.81,0,0,0,548,169.34h0c-.2,0-.23,0-.13,0-1.3-.06-2.62-.1-4-.09H540l-5.32,0-5.31,0h-3.87c-1.35,0-2.67,0-4,.09q.16,0-.12,0h0a63.62,63.62,0,0,0-14.31,2.27c-1.28.28-2.62.59-4,.93-21.34,5.32-36.8,24-39,46-.21.39-.42.76-.62,1.16l.49.27c-.11,1.48-.16,3-.14,4.48L464,237h62l.22-.68,16.94,0,.22.7h62l.14-12.51C605.78,199.87,589.5,178.33,566.29,172.54Z" transform="translate(-38.49 -34)"/><path class="cls-20" d="M604.67,169.76c-5.93-2.82-13-10.24-13-10.24l-5-5.28a2.6,2.6,0,0,1-.26-3.34,2.5,2.5,0,0,1,3.81-.19l4.7,5a1.25,1.25,0,0,0,2.16-.87,9.51,9.51,0,0,0-1.61-4.5s-11.08-14.45-11.08-14.45a2.5,2.5,0,0,1,.47-3.51h0a7.23,7.23,0,0,1,5.06,2.5l6.48,8.48a1.21,1.21,0,0,0,1.47.35l.35-.17a1.24,1.24,0,0,0,.62-1.58l-5.84-14.74a2.61,2.61,0,0,1,1-3.2,2.5,2.5,0,0,1,3.62,1.22l5.64,14.22a1.77,1.77,0,0,0,2,1.08,1.86,1.86,0,0,0,1.28-2.19l-3-13.44a2.61,2.61,0,0,1,1.47-3,2.51,2.51,0,0,1,3.38,1.78l3.13,14a4.46,4.46,0,0,0,1.44,2.39,1.31,1.31,0,0,0,2.16-1l0-6.44a2.61,2.61,0,0,1,2.23-2.65,2.5,2.5,0,0,1,2.77,2.48l.37,14a161.81,161.81,0,0,1,.32,19.09l0,93.62a17.1,17.1,0,0,1-22.68,16.16h0a6.31,6.31,0,0,1-9.71-6.27Z" transform="translate(-38.49 -34)"/><path class="cls-21" d="M608.79,158.52l.07,0a.62.62,0,0,0,.2-.85c-1.54-2.5-3.48-4-5.75-4.35-3.79-.65-7.08,2-7.22,2.07a.62.62,0,1,0,.78,1s3-2.37,6.24-1.82a7.34,7.34,0,0,1,4.89,3.78A.63.63,0,0,0,608.79,158.52Z" transform="translate(-38.49 -34)"/><path class="cls-21" d="M492.26,89.1a15.67,15.67,0,0,1,5.24-12.54,12.83,12.83,0,0,1,16.72-16.81,13.68,13.68,0,0,1,24.94-1.31,12.7,12.7,0,0,1,5.42-1.53,12.85,12.85,0,0,1,13.5,12.15,13.47,13.47,0,0,1-.11,2.47,15.69,15.69,0,0,1-3.78,30c.36,8.47-46.09,10.93-46.63,2.47A15.69,15.69,0,0,1,492.26,89.1Z" transform="translate(-38.49 -34)"/><path class="cls-20" d="M566.17,124.9c-.28-5.34-4.22-9.48-8.81-9.24l-1.08.06-.61-11.6a18.79,18.79,0,0,0-1.77-7,15.71,15.71,0,0,1-3,.45,16.39,16.39,0,0,1-14.93-8,17.4,17.4,0,0,1-16.87.89,16.4,16.4,0,0,1-13.91,9.48,19,19,0,0,0-.93,6.88l.62,11.63c-4.38.5-7.64,4.89-7.37,10.07s4,9.2,8.38,9.23l.22,4.07c.36,6.89,7.42,12.54,14,15.5l1.18,19.46a13,13,0,0,0,26-1.51l-1.14-20.55c5.55-3.75,11.74-9.5,11.42-15.61l-.22-4,1.08-.06C563,134.77,566.45,130.24,566.17,124.9Z" transform="translate(-38.49 -34)"/><path class="cls-22" d="M525.51,157.84a17.92,17.92,0,0,1-5.45-.55L521,166l19.72-9.12a17.17,17.17,0,0,1-2.27.28Z" transform="translate(-38.49 -34)"/><path class="cls-21" d="M500.22,127.13a.69.69,0,0,1-.73-.65,5,5,0,0,1,4.72-5.67.69.69,0,0,1,.73.65.7.7,0,0,1-.66.73,3.63,3.63,0,0,0-3.4,4.21A.69.69,0,0,1,500.22,127.13Z" transform="translate(-38.49 -34)"/><path class="cls-21" d="M562.87,123.83a.68.68,0,0,1-.73-.65,3.65,3.65,0,0,0-3.83-3.83.7.7,0,1,1-.07-1.39,5,5,0,0,1,5.28,5.14A.69.69,0,0,1,562.87,123.83Z" transform="translate(-38.49 -34)"/><path class="cls-21" d="M519.27,126.65h0a1.41,1.41,0,0,1-1.48-1.33l-.14-2.81A1.4,1.4,0,0,1,519,121h0a1.41,1.41,0,0,1,1.48,1.33l.14,2.81A1.4,1.4,0,0,1,519.27,126.65Z" transform="translate(-38.49 -34)"/><path class="cls-21" d="M540.34,125.54h0a1.41,1.41,0,0,1-1.48-1.33l-.14-2.81a1.4,1.4,0,0,1,1.33-1.48h0a1.42,1.42,0,0,1,1.48,1.33l.14,2.81A1.4,1.4,0,0,1,540.34,125.54Z" transform="translate(-38.49 -34)"/><path class="cls-21" d="M522.17,116.43a5.92,5.92,0,0,1-2.39.46c-.86,0-1.73.13-2.48.22s-1.61.22-2.46.37a5.8,5.8,0,0,1-2.43.11c-.68-.19-1.06-.94-.43-2a6.52,6.52,0,0,1,4.79-2.55,6.66,6.66,0,0,1,5.31,1.35C523,115.27,522.78,116.08,522.17,116.43Z" transform="translate(-38.49 -34)"/><path class="cls-21" d="M544.7,115.31a6,6,0,0,1-2.43,0c-.85-.11-1.71-.19-2.46-.24s-1.62-.07-2.49-.07a5.57,5.57,0,0,1-2.38-.33c-.61-.31-.78-1.11.09-2a7,7,0,0,1,5.32-1.65c2.49.16,4.22,1.29,4.8,2.28S545.39,115.08,544.7,115.31Z" transform="translate(-38.49 -34)"/><path class="cls-10" d="M538,144.44l-2.27.12a1.82,1.82,0,0,1-2.07-1.49l-.23-4.24,12.43-2.12,0,.7C546.12,141.05,542.59,144.2,538,144.44Z" transform="translate(-38.49 -34)"/><path class="cls-21" d="M533.83,135.16l-3.08.16a5.45,5.45,0,0,1-5.73-5.15,2.53,2.53,0,0,1,2.38-2.64,3.18,3.18,0,0,0,3-3.34l-.22-4.2a.56.56,0,0,1,.54-.6.57.57,0,0,1,.6.54l.22,4.2a4.33,4.33,0,0,1-4.08,4.54,1.37,1.37,0,0,0-1.3,1.44,4.32,4.32,0,0,0,4.53,4.08l3.08-.16a.57.57,0,0,1,.06,1.13Z" transform="translate(-38.49 -34)"/><path class="cls-21" d="M502,214.3a28,28,0,0,0-1.56-18.8c-1.84-3.87-4.52-8.17-2.79-12.38a24.91,24.91,0,0,1,2.22-3.62c3.79-6.09,2.58-12.82,1-19.33-.75-3-2.23-5.77-3.27-8.72-1.16-3.29-2.12-6.65-3.19-10-1.89-5.86-4.22-11.74-8.3-16.28a30.19,30.19,0,0,0-14.43-8.57,38.09,38.09,0,0,0-20.8.18c-6.87,2-12.88,6.54-18.39,11.06-5.67,4.65-10.69,10.53-13.25,17.54a31.55,31.55,0,0,0-1.78,8.1c-.36,4.26.16,8.53-.13,12.8-.59,8.62-6.35,14-10.64,20.89-2.56,4.15-4.39,9.13-3.33,13.87,1.46,6.5,7.72,10.5,13.61,13.38A158.15,158.15,0,0,0,459.21,228c11.58,2,26.32,4.6,36.45-3.52A19.4,19.4,0,0,0,502,214.3Z" transform="translate(-38.49 -34)"/><path class="cls-23" d="M498,236.34c-7.42-13.35-16.28-21.56-23.19-26.41a28.16,28.16,0,0,0-11.39-6.22v0c-.16,0-.19-.05-.11,0A27.34,27.34,0,0,0,460,203l-3.27-.48L448,201.22l-3.27-.48a29.64,29.64,0,0,0-3.37-.28l.12-.2s-28.63-1.72-55.44,34.78C386.07,235,500.82,241.37,498,236.34Z" transform="translate(-38.49 -34)"/><path class="cls-24" d="M447.51,138.24c-.85,5.95-3,12.14-8.16,14.73l-1.64-2.61-.42-.07a7.54,7.54,0,0,0-8.46,6.46h0a7.53,7.53,0,0,0,6.08,8.74l1,.15-.13.88a23.06,23.06,0,0,0,9.47,22.4l-3,19.27a9.27,9.27,0,0,0,18.32,2.87l2.88-18.42a23.09,23.09,0,0,0,17.93-19l.15-.95a7.57,7.57,0,0,0,7.48-6.54h0a7.57,7.57,0,0,0-5.13-8.5l.76-4.84A66.4,66.4,0,0,1,447.51,138.24Z" transform="translate(-38.49 -34)"/><path class="cls-25" d="M454,191l-4.47-1a19.45,19.45,0,0,1-4.42-1.56l-1.1,7.23,16.41-4-.32-.29A19.44,19.44,0,0,1,454,191Z" transform="translate(-38.49 -34)"/><path class="cls-26" d="M469.51,175.33l4.6.68a2.65,2.65,0,0,0,3-2.24h0a2.65,2.65,0,0,0-2.24-3l-4.6-.68a2.67,2.67,0,0,0-3,2.24h0A2.66,2.66,0,0,0,469.51,175.33Z" transform="translate(-38.49 -34)"/><path class="cls-26" d="M444.77,171.69l4.6.69a2.66,2.66,0,0,0,3-2.25h0a2.66,2.66,0,0,0-2.24-3l-4.6-.68a2.67,2.67,0,0,0-3,2.24h0A2.66,2.66,0,0,0,444.77,171.69Z" transform="translate(-38.49 -34)"/><path class="cls-19" d="M460.53,172a5,5,0,0,1-.54-.06l-1.74-.26a.56.56,0,0,1-.48-.63.55.55,0,0,1,.64-.47l1.74.25a3.87,3.87,0,0,0,2.43-.38A2.1,2.1,0,0,0,463.7,169l.12-.84a.55.55,0,0,0-.15-.38,1.27,1.27,0,0,0-.66-.31,2.45,2.45,0,0,1-2.3-2.53l.6-4.07a.56.56,0,0,1,.64-.47.55.55,0,0,1,.47.63l-.6,4.08c-.08.56.54,1.13,1.36,1.25a2.28,2.28,0,0,1,1.29.65,1.56,1.56,0,0,1,.46,1.31l-.12.84a3.16,3.16,0,0,1-1.69,2.29A5,5,0,0,1,460.53,172Z" transform="translate(-38.49 -34)"/><path class="cls-21" d="M471.63,167.84h0a1.4,1.4,0,0,0,1.59-1.16l.44-2.74a1.39,1.39,0,0,0-1.15-1.6h0a1.38,1.38,0,0,0-1.59,1.15l-.45,2.75A1.4,1.4,0,0,0,471.63,167.84Z" transform="translate(-38.49 -34)"/><path class="cls-21" d="M450.26,164.4h0a1.39,1.39,0,0,0,1.59-1.15l.45-2.75a1.4,1.4,0,0,0-1.16-1.6h0a1.38,1.38,0,0,0-1.59,1.15l-.45,2.75A1.4,1.4,0,0,0,450.26,164.4Z" transform="translate(-38.49 -34)"/><path class="cls-19" d="M469.54,167.11a.58.58,0,0,1,.25.09,4.34,4.34,0,0,0,4.13.78.46.46,0,1,1,.37.85,5.26,5.26,0,0,1-5.06-.88.46.46,0,0,1-.09-.65A.46.46,0,0,1,469.54,167.11Z" transform="translate(-38.49 -34)"/><path class="cls-19" d="M447.67,163.17a.54.54,0,0,1,.24.09,4.36,4.36,0,0,0,4.14.78.46.46,0,0,1,.61.24.47.47,0,0,1-.24.61,5.26,5.26,0,0,1-5.06-.88.47.47,0,0,1-.1-.65A.49.49,0,0,1,447.67,163.17Z" transform="translate(-38.49 -34)"/><path class="cls-19" d="M454.18,173a.49.49,0,0,0-.5.49,2.88,2.88,0,0,0,1,2.37c2,1.73,6.39,1,6.58,1a.5.5,0,1,0-.17-1s-4.11.68-5.75-.75a1.9,1.9,0,0,1-.64-1.59.51.51,0,0,0-.49-.51Z" transform="translate(-38.49 -34)"/><path class="cls-21" d="M456.67,155.86a4.3,4.3,0,0,1-1.76-.24c-.61-.17-1.23-.32-1.77-.44s-1.17-.22-1.8-.32a4.3,4.3,0,0,1-1.7-.49c-.43-.3-.5-.9.2-1.48a4.92,4.92,0,0,1,4-.63,4.74,4.74,0,0,1,3.32,2.18C457.51,155.24,457.19,155.76,456.67,155.86Z" transform="translate(-38.49 -34)"/><path class="cls-21" d="M476.19,157.77a4.41,4.41,0,0,1-1.78,0c-.63-.07-1.26-.13-1.82-.16s-1.19,0-1.82,0a4.27,4.27,0,0,1-1.76-.24c-.47-.22-.63-.81,0-1.49a4.93,4.93,0,0,1,3.82-1.22,4.7,4.7,0,0,1,3.61,1.65C476.92,157,476.68,157.59,476.19,157.77Z" transform="translate(-38.49 -34)"/></g><path class="cls-27" d="M152.18,254.85h0A1.15,1.15,0,0,1,151,256h-7.37a1.15,1.15,0,0,1-1.15-1.15h0a1.14,1.14,0,0,1,1.15-1.15H151A1.14,1.14,0,0,1,152.18,254.85Z" transform="translate(-38.49 -34)"/><path class="cls-27" d="M183.51,128.15h0a1.14,1.14,0,0,1-1.15,1.15H165.31a1.15,1.15,0,0,1-1.15-1.15h0a1.16,1.16,0,0,1,1.15-1.15h17.05A1.15,1.15,0,0,1,183.51,128.15Z" transform="translate(-38.49 -34)"/><path class="cls-27" d="M183.51,254.85h0a1.15,1.15,0,0,1-1.15,1.15H165.31a1.16,1.16,0,0,1-1.15-1.15h0a1.15,1.15,0,0,1,1.15-1.15h17.05A1.14,1.14,0,0,1,183.51,254.85Z" transform="translate(-38.49 -34)"/><path class="cls-27" d="M206.55,254.85h0A1.16,1.16,0,0,1,205.4,256H188.35a1.15,1.15,0,0,1-1.15-1.15h0a1.14,1.14,0,0,1,1.15-1.15H205.4A1.15,1.15,0,0,1,206.55,254.85Z" transform="translate(-38.49 -34)"/><rect class="cls-28" x="69.93" y="94.25" width="260.07" height="126.93" rx="15.89"/><path class="cls-29" d="M365,146.94v89.55c0,8.26-6.95,15-15.52,15H126.57c-8.57,0-15.52-6.7-15.52-15V146.94c0-8.27,7-15,15.52-15H349.48C358.05,132,365,138.67,365,146.94Z" transform="translate(-38.49 -34)"/><rect class="cls-10" x="101.72" y="101.64" width="198.11" height="111.95"/><g class="cls-30"><path class="cls-31" d="M119,190.33a1.38,1.38,0,1,1-1.38,1.38A1.38,1.38,0,0,1,119,190.33Z" transform="translate(-38.49 -34)"/></g><g class="cls-30"><path class="cls-31" d="M126.84,181.11v21.2a.92.92,0,0,1-.92.92h0a.92.92,0,0,1-.92-.92v-21.2a.92.92,0,0,1,.92-.92h0A.92.92,0,0,1,126.84,181.11Z" transform="translate(-38.49 -34)"/></g><rect class="cls-2" x="107.1" y="106.54" width="185.21" height="100.12"/><rect class="cls-16" x="177.51" y="125.57" width="114.8" height="62.06"/><path class="cls-32" d="M322.81,148.58l-3.56.95a.15.15,0,0,0-.11.15v-1.32a1.76,1.76,0,0,0-1.76-1.76h-9.62a1.76,1.76,0,0,0-1.76,1.76v6.78a1.76,1.76,0,0,0,1.76,1.76h9.62a1.76,1.76,0,0,0,1.76-1.76v-1.32a.15.15,0,0,0,.11.15l3.56.95a.15.15,0,0,0,.19-.15v-6A.15.15,0,0,0,322.81,148.58Z" transform="translate(-38.49 -34)"/><rect class="cls-33" x="310.51" y="142.71" width="8" height="30" rx="3.59"/><path class="cls-24" d="M290.38,158.45l-.28-10.7a1.9,1.9,0,0,0-2.11-1.88,2,2,0,0,0-1.7,2l0,4.9a1,1,0,0,1-1.64.76,3.34,3.34,0,0,1-1.09-1.81L281.2,141.1a1.91,1.91,0,0,0-2.47-1.39A2,2,0,0,0,277.5,142l2.3,10.23a1.42,1.42,0,0,1-1.07,1.69,1.25,1.25,0,0,1-1.43-.76L273,142.29a1.92,1.92,0,0,0-2.66-1,2,2,0,0,0-.85,2.49L273.92,155a1,1,0,0,1-.48,1.21l-.26.13a.93.93,0,0,1-1.12-.27l-5.84-7.65a2.52,2.52,0,0,0-2.94-.71h0a1.9,1.9,0,0,0-.36,2.67l8.43,11a7.22,7.22,0,0,1,1.23,3.42,1,1,0,0,1-1.65.66l-3.57-3.83a1.9,1.9,0,0,0-2.83,0,2,2,0,0,0,.12,2.63l3.77,4s5.36,5.65,9.87,7.79l-4.6,48.63c1.3,2.19,2.59,4.48,3.85,6.92l-3,1.71-23,13,21.92,10.1a13,13,0,0,0,17.27-12.3l0-71.26A122,122,0,0,0,290.38,158.45Z" transform="translate(-38.49 -34)"/><path class="cls-34" d="M281.43,167.59l.05,0a.48.48,0,0,0,.16-.65,6.49,6.49,0,0,0-4.38-3.31,7.65,7.65,0,0,0-5.5,1.58.47.47,0,0,0-.07.66.47.47,0,0,0,.66.08,6.86,6.86,0,0,1,4.76-1.39,5.6,5.6,0,0,1,3.72,2.88A.49.49,0,0,0,281.43,167.59Z" transform="translate(-38.49 -34)"/><polygon class="cls-24" points="108.51 213 134.37 213 108.51 198.37 108.51 213"/><path class="cls-15" d="M277.54,231.69c-1.26-2.44-2.55-4.73-3.85-6.92C251.48,187.6,223.75,185,223.75,185L207,184.8l-3.6,0a29.82,29.82,0,0,0-3.68.2c.1,0,.06,0-.12,0v0a30.63,30.63,0,0,0-13.3,4.78c-11.36,5.59-27.76,17.4-40.48,41.94l1.21.68L172.86,247l.21.12,77.3-.06.76-.43.33-.19,23-13Z" transform="translate(-38.49 -34)"/><path class="cls-35" d="M193.52,184.85c22.7,0,58.51-3.42,59.58-25.53,0,0-2.31-59.56-21.92-67.23A44.56,44.56,0,0,0,213.44,89a44.59,44.59,0,0,0-17.74,3.06c-19.61,7.67-20,34.6-20,34.6,1.07,22.11-3,19.79-11.06,33.88-.19.33-.36.66-.53,1-6,11.92,3.33,25.55,16.67,25.4A43.24,43.24,0,0,0,193.52,184.85Z" transform="translate(-38.49 -34)"/><path class="cls-24" d="M236.53,129.73h0v-8c0-11.49-9-20.81-20.13-20.81h-5.06c-11.12,0-20.13,9.32-20.13,20.81v8h0a7.23,7.23,0,1,0,0,14.45h0v5a20.75,20.75,0,0,0,13.56,19.65v15.73a9.11,9.11,0,0,0,18.21,0V168.78a20.75,20.75,0,0,0,13.55-19.64v-5h0a7.23,7.23,0,1,0,0-14.45Z" transform="translate(-38.49 -34)"/><path class="cls-36" d="M211.33,170a19.39,19.39,0,0,1-6.52-1.14v7.7l17.27-7.14-.31-.2a19.12,19.12,0,0,1-5.38.78Z" transform="translate(-38.49 -34)"/><path class="cls-37" d="M226.19,145.14h4.45a2.55,2.55,0,0,0,2.55-2.54h0a2.54,2.54,0,0,0-2.55-2.54h-4.45a2.54,2.54,0,0,0-2.54,2.54h0A2.54,2.54,0,0,0,226.19,145.14Z" transform="translate(-38.49 -34)"/><path class="cls-37" d="M199.47,145.14h4.46a2.54,2.54,0,0,0,2.54-2.54h0a2.54,2.54,0,0,0-2.54-2.54h-4.46a2.54,2.54,0,0,0-2.54,2.54h0A2.54,2.54,0,0,0,199.47,145.14Z" transform="translate(-38.49 -34)"/><path class="cls-21" d="M225.11,138.3h0a1.32,1.32,0,0,0,1.32-1.33v-2.65a1.33,1.33,0,0,0-1.32-1.33h0a1.33,1.33,0,0,0-1.33,1.33V137A1.32,1.32,0,0,0,225.11,138.3Z" transform="translate(-38.49 -34)"/><path class="cls-21" d="M205.2,138.3h0a1.33,1.33,0,0,0,1.33-1.33v-2.65A1.34,1.34,0,0,0,205.2,133h0a1.34,1.34,0,0,0-1.33,1.33V137A1.33,1.33,0,0,0,205.2,138.3Z" transform="translate(-38.49 -34)"/><path class="cls-35" d="M221.22,128.45a5.09,5.09,0,0,0,2,.67c.74.14,1.47.31,2.1.47s1.36.38,2.07.61a5.06,5.06,0,0,0,2.06.37c.6-.09,1-.69.56-1.67a5.78,5.78,0,0,0-3.86-2.75,5.58,5.58,0,0,0-4.65.56C220.65,127.36,220.72,128.08,221.22,128.45Z" transform="translate(-38.49 -34)"/><path class="cls-35" d="M200.61,131.27a5,5,0,0,0,2-.46c.68-.25,1.38-.49,2-.68s1.33-.38,2-.55a5,5,0,0,0,1.92-.74c.46-.39.48-1.09-.38-1.68a5.69,5.69,0,0,0-4.64-.34,5.54,5.54,0,0,0-3.61,2.85C199.58,130.64,200,131.21,200.61,131.27Z" transform="translate(-38.49 -34)"/><path class="cls-19" d="M207.56,139.54a.48.48,0,0,1-.23,0,4.09,4.09,0,0,0-4,0,.5.5,0,0,1-.55-.83,5,5,0,0,1,4.95,0,.5.5,0,0,1,.23.67A.51.51,0,0,1,207.56,139.54Z" transform="translate(-38.49 -34)"/><path class="cls-19" d="M227.91,139.54a.44.44,0,0,1-.22,0,4.09,4.09,0,0,0-3.95,0,.51.51,0,0,1-.7-.14.5.5,0,0,1,.14-.69,5.06,5.06,0,0,1,5,0,.5.5,0,0,1-.23.94Z" transform="translate(-38.49 -34)"/><path class="cls-19" d="M214.9,143.74H213a.5.5,0,0,1-.5-.5.51.51,0,0,1,.5-.5h1.94a3.45,3.45,0,0,0,3.65-3.2v-1.07a1,1,0,0,0-1.1-.92,2.68,2.68,0,0,1-2.79-2.54v-5.23a.51.51,0,0,1,.5-.5.5.5,0,0,1,.5.5V135a1.69,1.69,0,0,0,1.79,1.54,2,2,0,0,1,2.1,1.92v1.07A4.45,4.45,0,0,1,214.9,143.74Z" transform="translate(-38.49 -34)"/><path class="cls-10" d="M213.45,154.79h4.18a2.37,2.37,0,0,0,2.37-2.37V147.8a1.44,1.44,0,0,0-1.43-1.44H205A8.43,8.43,0,0,0,213.45,154.79Z" transform="translate(-38.49 -34)"/><path class="cls-19" d="M242,137.05a.5.5,0,0,1-.5-.5,3.63,3.63,0,0,0-3.58-4,.49.49,0,0,1-.49-.5.5.5,0,0,1,.49-.5,4.64,4.64,0,0,1,4.58,5A.51.51,0,0,1,242,137.05Z" transform="translate(-38.49 -34)"/><path class="cls-19" d="M185.79,137.05a.51.51,0,0,1-.5-.5,4.64,4.64,0,0,1,4.57-5,.5.5,0,0,1,.5.5.5.5,0,0,1-.5.5,3.63,3.63,0,0,0-3.57,4A.5.5,0,0,1,185.79,137.05Z" transform="translate(-38.49 -34)"/><path class="cls-21" d="M188.52,149.81h0a1,1,0,0,1-1-1v-7.68a1,1,0,0,1,1-.95h0a1,1,0,0,1,1,.95v7.68A1,1,0,0,1,188.52,149.81Z" transform="translate(-38.49 -34)"/><path class="cls-21" d="M239.36,149.81h0a1,1,0,0,1-1-1v-7.68a1,1,0,0,1,1-.95h0a1,1,0,0,1,1,.95v7.68A1,1,0,0,1,239.36,149.81Z" transform="translate(-38.49 -34)"/><path class="cls-35" d="M207.82,94.74c-16.78,2.79-21.27,23.58-21.27,23.58-2.61,17.29,14,14,14,14,4.9.07,8.8-9.28,11-16,7.53-.44,20.3-2.16,22.49-8.71C237,98.75,222.23,92.35,207.82,94.74Z" transform="translate(-38.49 -34)"/><path class="cls-21" d="M195.18,187.92a2.58,2.58,0,1,0,2-3A2.57,2.57,0,0,0,195.18,187.92Z" transform="translate(-38.49 -34)"/><path class="cls-21" d="M198.11,192.87a2.58,2.58,0,1,0,2-3A2.57,2.57,0,0,0,198.11,192.87Z" transform="translate(-38.49 -34)"/><path class="cls-21" d="M202.81,196.81a2.58,2.58,0,1,0,2-3A2.58,2.58,0,0,0,202.81,196.81Z" transform="translate(-38.49 -34)"/><path class="cls-21" d="M208.24,198.38a2.58,2.58,0,1,0,2-3A2.57,2.57,0,0,0,208.24,198.38Z" transform="translate(-38.49 -34)"/><path class="cls-21" d="M214,197.78a2.58,2.58,0,1,0,2-3A2.57,2.57,0,0,0,214,197.78Z" transform="translate(-38.49 -34)"/><path class="cls-21" d="M219.83,195.87a2.58,2.58,0,1,0,2-3A2.57,2.57,0,0,0,219.83,195.87Z" transform="translate(-38.49 -34)"/><path class="cls-21" d="M224.5,192.2a2.58,2.58,0,1,0,2-3A2.57,2.57,0,0,0,224.5,192.2Z" transform="translate(-38.49 -34)"/><path class="cls-21" d="M228.06,187.57a2.58,2.58,0,1,0,2-3A2.57,2.57,0,0,0,228.06,187.57Z" transform="translate(-38.49 -34)"/><path class="cls-28" d="M505.4,398.76l-274.78-.14.09-184.11a5.58,5.58,0,0,1,5.58-5.58l263.63.14a5.57,5.57,0,0,1,5.57,5.58Z" transform="translate(-38.49 -34)"/><path class="cls-21" d="M370.24,216.84a2.15,2.15,0,1,1-2.14-2A2.09,2.09,0,0,1,370.24,216.84Z" transform="translate(-38.49 -34)"/><path class="cls-38" d="M534.49,432.08l-333.4-.16c-3.62,0-6.55-2-6.55-4.56V420.2c0-.71.83-1.29,1.85-1.28l343.1.16c1,0,1.84.58,1.84,1.29v7C541.33,430,538.27,432.08,534.49,432.08Z" transform="translate(-38.49 -34)"/><rect class="cls-10" x="204.32" y="190.06" width="250.49" height="160.39" rx="6.11"/><path class="cls-28" d="M487.33,236.86v-4.63a6,6,0,0,0-5.91-6.11L250.91,226a6,6,0,0,0-5.91,6.11v4.65Z" transform="translate(-38.49 -34)"/><path class="cls-10" d="M471.23,230.22a1.41,1.41,0,1,1-1.41-1.41A1.41,1.41,0,0,1,471.23,230.22Z" transform="translate(-38.49 -34)"/><path class="cls-10" d="M476.87,230.22a1.41,1.41,0,1,1-1.41-1.41A1.41,1.41,0,0,1,476.87,230.22Z" transform="translate(-38.49 -34)"/><path class="cls-39" d="M482.52,230.22a1.41,1.41,0,1,1-1.41-1.41A1.41,1.41,0,0,1,482.52,230.22Z" transform="translate(-38.49 -34)"/><rect class="cls-2" x="225.64" y="218.48" width="205.82" height="111.26"/><rect class="cls-16" x="261.48" y="218.48" width="134.16" height="72.52"/><rect class="cls-16" x="295.71" y="218.48" width="65.71" height="35.52"/><path class="cls-40" d="M231.68,398.08l-36.07,21.18h0l345.72,0-35-21Z" transform="translate(-38.49 -34)"/><path class="cls-41" d="M232,398.17l-35,20.75H541L505,397.4Z" transform="translate(-38.49 -34)"/><path class="cls-42" d="M250,401.94a4.79,4.79,0,0,0-2.83.92l-15.26,11.07h0l274.24.05L492,403.84a9.24,9.24,0,0,0-5.37-1.73Z" transform="translate(-38.49 -34)"/><path class="cls-24" d="M434.66,326.61l11.61,16.84c.2.21-.16-.83,0-1.06l18.23-29.88-.05,0L466,310l5.75-9.42c-4.14-4.35-5.17-13.71-5.14-13.69l-2-6.41a2.4,2.4,0,0,1,1.25-3A2.32,2.32,0,0,1,469,279l1.92,6.1a1.15,1.15,0,0,0,2.15.13,8.74,8.74,0,0,0,.45-4.4c0-.06-3.5-16.53-3.5-16.53a2.32,2.32,0,0,1,1.79-2.75h0a3.06,3.06,0,0,1,2.87,2.32l2.41,11.48a1.12,1.12,0,0,0,1.09.88h.36a1.15,1.15,0,0,0,1.15-1.08l1-14.67a2.42,2.42,0,0,1,2.24-2.3,2.33,2.33,0,0,1,2.4,2.48l-1,14.27a1.53,1.53,0,0,0,1.18,1.59,1.72,1.72,0,0,0,2.06-1.3l2.85-12.46a2.41,2.41,0,0,1,2.57-1.92,2.33,2.33,0,0,1,2,2.82l-3,12.95a4.12,4.12,0,0,0,.24,2.57h0a1.22,1.22,0,0,0,2.21,0l2.55-5.41a2.42,2.42,0,0,1,2.93-1.32,2.32,2.32,0,0,1,1.33,3.18L496,287.53c-3.93,10.72-8.18,17-9.65,18.94l-4.83,10.13-1.06,2.31,0,0-24.95,52.33a13.17,13.17,0,0,1-21.13,3.71l-21.18-24Z" transform="translate(-38.49 -34)"/><path class="cls-19" d="M481.37,292.84h.05a.53.53,0,0,0,.48-.59,7.89,7.89,0,0,0-3.06-5.9c-2.9-2-6.68-1.18-6.84-1.15a.53.53,0,1,0,.24,1s3.49-.79,6,1a6.89,6.89,0,0,1,2.61,5.15A.54.54,0,0,0,481.37,292.84Z" transform="translate(-38.49 -34)"/><path class="cls-19" d="M405.77,350.79,412.5,353l25.92-28c-18.87-35.59-42.09-49-55.57-54a47.34,47.34,0,0,0-16.46-2.91H347.62a41.73,41.73,0,0,0-14.89,2.63c-41,15.67-55.94,78.88-55.94,78.88l5.56.92,27,4.5V384l96.45,0Z" transform="translate(-38.49 -34)"/><polygon class="cls-24" points="270.43 321.03 244.08 316.78 244.06 349.96 270.41 349.97 270.43 321.03"/><path class="cls-43" d="M405.68,366.4a.54.54,0,0,0,.53-.54V342.37a.54.54,0,1,0-1.07,0v23.49A.54.54,0,0,0,405.68,366.4Z" transform="translate(-38.49 -34)"/><path class="cls-43" d="M309,366.88a.53.53,0,0,0,.54-.53v-23.5a.54.54,0,0,0-1.07,0v23.5A.53.53,0,0,0,309,366.88Z" transform="translate(-38.49 -34)"/><path class="cls-21" d="M394.7,186.37C389.06,174,379.06,179,379.06,179c-2.88-7.3-11.05-15.93-22.36-16.92-8.23-.72-12.31,2.76-15,3.76-6.39-3.58-12.68-3.76-17.27,1.14-6.74,7.19-4,13.7-2.23,16.48.5,1.07,2.91,4.79,5.08,6-3.69,8.77-6.62,23.16,13.1,24.53l41.23,2.09a57.4,57.4,0,0,0,6.49-6.72C393,203.38,398.35,194.38,394.7,186.37Z" transform="translate(-38.49 -34)"/><path class="cls-1" d="M330.56,190.68l.67-.05-.6-.13A1,1,0,0,1,330.56,190.68Z" transform="translate(-38.49 -34)"/><path class="cls-24" d="M388.07,209.36a57.4,57.4,0,0,1-6.49,6.72l-1.41-15.76c-6.11-.44-7.66-4.75-7.75-8.76l-10.48-.05a103.49,103.49,0,0,1-30.71-.88l-.67.05a1,1,0,0,1-.33.39v17.35h-.7a8.17,8.17,0,0,0-8.16,8.16v.88a8.15,8.15,0,0,0,8.15,8.16h.7v11.8c0,9,6.39,15,12.12,16l-2,23.07a11.29,11.29,0,0,0,11.28,11.29h7.49a12.16,12.16,0,0,0,12.17-12.16l-2-22h0a14.92,14.92,0,0,0,14.88-14.86V225.65h.22a8.17,8.17,0,0,0,8.16-8.15v-.89A8.13,8.13,0,0,0,388.07,209.36Z" transform="translate(-38.49 -34)"/><path class="cls-36" d="M369,253.64l1,10.11-27-10.3a8.27,8.27,0,0,0,1.66.18Z" transform="translate(-38.49 -34)"/><path class="cls-19" d="M389.37,217.1a.35.35,0,0,0,.35-.34,3.5,3.5,0,0,0-3.46-3.75.34.34,0,0,0-.34.34.35.35,0,0,0,.34.35,2.8,2.8,0,0,1,2.77,3.06A.34.34,0,0,0,389.37,217.1Z" transform="translate(-38.49 -34)"/><path class="cls-19" d="M324.26,217.07a.35.35,0,0,1-.35-.34,3.51,3.51,0,0,1,3.46-3.75.35.35,0,0,1,.35.34.35.35,0,0,1-.35.35,2.8,2.8,0,0,0-2.77,3.06A.34.34,0,0,1,324.26,217.07Z" transform="translate(-38.49 -34)"/><path d="M343,216.67h0a1.46,1.46,0,0,1-1.46-1.47v-2.93A1.46,1.46,0,0,1,343,210.8h0a1.47,1.47,0,0,1,1.47,1.47v2.94A1.46,1.46,0,0,1,343,216.67Z" transform="translate(-38.49 -34)"/><path d="M365.48,216.68h0a1.46,1.46,0,0,1-1.46-1.46v-2.94a1.46,1.46,0,0,1,1.47-1.46h0a1.46,1.46,0,0,1,1.46,1.46v2.94A1.46,1.46,0,0,1,365.48,216.68Z" transform="translate(-38.49 -34)"/><path class="cls-21" d="M348.43,205.42a4.86,4.86,0,0,1-2.51.51c-.92,0-1.83.09-2.62.17s-1.7.23-2.6.39a5,5,0,0,1-2.56,0c-.72-.29-1.09-1.31-.41-2.68a6.52,6.52,0,0,1,5.12-3.19,6.15,6.15,0,0,1,5.55,2.05C349.29,203.91,349.09,205,348.43,205.42Z" transform="translate(-38.49 -34)"/><path class="cls-21" d="M373,207.85a5.32,5.32,0,0,1-2.73-.31c-.93-.27-1.87-.51-2.7-.68s-1.79-.32-2.76-.45a5.08,5.08,0,0,1-2.58-.79c-.6-.52-.57-1.66.67-2.81a7.55,7.55,0,0,1,6.43-1.53,6,6,0,0,1,4.73,3.84C374.51,206.61,373.87,207.62,373,207.85Z" transform="translate(-38.49 -34)"/><path class="cls-19" d="M342.84,217.29a6.12,6.12,0,0,0,2.76-.68.53.53,0,0,0,.24-.72.54.54,0,0,0-.72-.24,4.49,4.49,0,0,1-4.38,0,.54.54,0,0,0-.74.15.53.53,0,0,0,.14.74A5.23,5.23,0,0,0,342.84,217.29Z" transform="translate(-38.49 -34)"/><path class="cls-19" d="M365.34,217.3a6.12,6.12,0,0,0,2.76-.68.53.53,0,0,0-.47-1,4.51,4.51,0,0,1-4.39,0,.53.53,0,0,0-.74.16.52.52,0,0,0,.15.73A5,5,0,0,0,365.34,217.3Z" transform="translate(-38.49 -34)"/><path class="cls-19" d="M355.64,226.17h5.75a.43.43,0,1,0,0-.86h-5.74a3.93,3.93,0,0,1-3.92-3.92V220.3a1.12,1.12,0,0,1,1.12-1.12c1.81,0,2.94-1.35,2.94-3.54l.17-5.57a.43.43,0,0,0-.42-.44.45.45,0,0,0-.45.42l-.17,5.58c0,.64-.15,2.68-2.07,2.68a2,2,0,0,0-2,2v1.08A4.79,4.79,0,0,0,355.64,226.17Z" transform="translate(-38.49 -34)"/><path class="cls-10" d="M356.48,239.65H354.1a2.1,2.1,0,0,1-2.1-2.09V232l13.13-3.28V231A8.65,8.65,0,0,1,356.48,239.65Z" transform="translate(-38.49 -34)"/><path class="cls-44" d="M341.29,225.45a10,10,0,1,1,10-10A10,10,0,0,1,341.29,225.45Zm0-19a9,9,0,1,0,9,9A9,9,0,0,0,341.3,206.44Z" transform="translate(-38.49 -34)"/><path class="cls-44" d="M369.23,224.45a10,10,0,1,1,7.08-17.07h0a10,10,0,0,1-7.08,17.07Zm0-19a9,9,0,1,0,6.37,2.64h0A8.91,8.91,0,0,0,369.24,205.45Z" transform="translate(-38.49 -34)"/><path class="cls-44" d="M350.5,213.61a.47.47,0,0,1-.39-.19.49.49,0,0,1,.08-.7c.05,0,5.55-4.32,9.9,0a.5.5,0,1,1-.71.71c-3.73-3.73-8.38-.12-8.57,0A.45.45,0,0,1,350.5,213.61Z" transform="translate(-38.49 -34)"/><path class="cls-45" d="M230.73,282a20.9,20.9,0,1,1,20.9-20.9A20.93,20.93,0,0,1,230.73,282Zm0-38.41a17.51,17.51,0,1,0,17.51,17.51A17.53,17.53,0,0,0,230.73,243.62Z" transform="translate(-38.49 -34)"/><path class="cls-45" d="M237.41,254.4a6.68,6.68,0,1,1-6.68-6.68A6.68,6.68,0,0,1,237.41,254.4Z" transform="translate(-38.49 -34)"/><path class="cls-45" d="M242,267.76c0,3.69-5.05,6.68-11.27,6.68s-11.27-3-11.27-6.68,5-6.68,11.27-6.68S242,264.07,242,267.76Z" transform="translate(-38.49 -34)"/><path class="cls-45" d="M211.35,246.68H201a1.5,1.5,0,0,1,0-3h10.35a1.5,1.5,0,0,1,0,3Z" transform="translate(-38.49 -34)"/><path class="cls-45" d="M206.18,251.85a1.5,1.5,0,0,1-1.5-1.5V240a1.5,1.5,0,0,1,3,0v10.35A1.5,1.5,0,0,1,206.18,251.85Z" transform="translate(-38.49 -34)"/><path class="cls-45" d="M394.08,125A16.93,16.93,0,1,1,411,108.1,16.94,16.94,0,0,1,394.08,125Zm0-31.11a14.18,14.18,0,1,0,14.18,14.18A14.19,14.19,0,0,0,394.08,93.92Z" transform="translate(-38.49 -34)"/><path class="cls-45" d="M399.49,102.65a5.41,5.41,0,1,1-5.41-5.4A5.41,5.41,0,0,1,399.49,102.65Z" transform="translate(-38.49 -34)"/><ellipse class="cls-45" cx="355.59" cy="79.47" rx="9.13" ry="5.41"/><path class="cls-45" d="M378.39,96.68H370a1.5,1.5,0,0,1,0-3h8.39a1.5,1.5,0,0,1,0,3Z" transform="translate(-38.49 -34)"/><path class="cls-45" d="M374.19,100.88a1.5,1.5,0,0,1-1.5-1.5V91a1.5,1.5,0,0,1,3,0v8.39A1.5,1.5,0,0,1,374.19,100.88Z" transform="translate(-38.49 -34)"/><path class="cls-46" d="M519.64,355h-2a.5.5,0,0,1,0-1h2a.5.5,0,0,1,0,1Zm10-.21a.51.51,0,0,1-.5-.44.5.5,0,0,1,.45-.55q1-.12,1.95-.27a.5.5,0,0,1,.16,1c-.66.11-1.33.21-2,.28Zm11.46-3.32a.52.52,0,0,1-.45-.28.5.5,0,0,1,.23-.67c.59-.29,1.17-.6,1.74-.92a.5.5,0,0,1,.49.87c-.58.33-1.18.65-1.79.95A.54.54,0,0,1,541.09,351.47Zm9.65-7a.54.54,0,0,1-.35-.14.5.5,0,0,1,0-.71c.46-.47.9-1,1.33-1.45a.5.5,0,1,1,.76.65c-.44.51-.9,1-1.37,1.5A.51.51,0,0,1,550.74,344.44Zm6.71-9.87a.54.54,0,0,1-.21-.05.5.5,0,0,1-.25-.66c.27-.6.53-1.2.76-1.82a.5.5,0,0,1,.65-.29.51.51,0,0,1,.29.65c-.25.63-.51,1.26-.78,1.87A.51.51,0,0,1,557.45,334.57ZM560.4,323h0a.5.5,0,0,1-.46-.53c.05-.65.08-1.31.09-2a.51.51,0,0,1,.5-.49h0a.49.49,0,0,1,.49.51c0,.68,0,1.35-.09,2A.51.51,0,0,1,560.4,323Zm.1-12a.5.5,0,0,1-.5-.5v-2a.5.5,0,0,1,1,0v2A.5.5,0,0,1,560.5,311Zm0-12a.5.5,0,0,1-.5-.5v-2a.5.5,0,0,1,1,0v2A.5.5,0,0,1,560.5,299Zm0-12a.5.5,0,0,1-.5-.5v-2a.5.5,0,0,1,1,0v2A.5.5,0,0,1,560.5,287Zm0-12a.5.5,0,0,1-.5-.5v-2a.5.5,0,0,1,1,0v2A.5.5,0,0,1,560.5,275Zm0-12a.5.5,0,0,1-.5-.5v-2a.5.5,0,0,1,1,0v2A.5.5,0,0,1,560.5,263Zm0-12a.5.5,0,0,1-.5-.5v-2a.5.5,0,0,1,1,0v2A.5.5,0,0,1,560.5,251Z" transform="translate(-38.49 -34)"/><path class="cls-45" d="M277.5,122a.5.5,0,0,1-.5-.5v-2a.5.5,0,0,1,1,0v2A.5.5,0,0,1,277.5,122Zm0-12a.5.5,0,0,1-.5-.5v-2a.5.5,0,0,1,1,0v2A.5.5,0,0,1,277.5,110Zm1-11.92h-.11a.5.5,0,0,1-.38-.6c.15-.66.31-1.31.48-2a.5.5,0,0,1,.61-.36.51.51,0,0,1,.36.62c-.17.63-.33,1.27-.47,1.92A.5.5,0,0,1,278.54,98.08ZM443.09,88a.49.49,0,0,1-.49-.42q-.17-1-.39-1.92a.5.5,0,0,1,1-.23c.15.66.29,1.33.4,2a.5.5,0,0,1-.42.57ZM282.65,86.85a.53.53,0,0,1-.23-.06.51.51,0,0,1-.21-.68c.32-.6.65-1.18,1-1.77a.5.5,0,0,1,.68-.17.49.49,0,0,1,.18.68c-.33.57-.65,1.15-1,1.73A.51.51,0,0,1,282.65,86.85Zm7-9.74a.5.5,0,0,1-.36-.84q.69-.73,1.41-1.44a.5.5,0,1,1,.7.71c-.47.46-.93.93-1.39,1.41A.46.46,0,0,1,289.61,77.11Zm149.22-.2a.48.48,0,0,1-.42-.23q-.54-.83-1.11-1.62a.5.5,0,0,1,.1-.7.51.51,0,0,1,.7.11c.4.55.78,1.1,1.15,1.68a.5.5,0,0,1-.15.69A.54.54,0,0,1,438.83,76.91ZM298.88,69.56a.5.5,0,0,1-.26-.93c.58-.35,1.16-.69,1.75-1a.5.5,0,0,1,.68.19.51.51,0,0,1-.2.68c-.58.32-1.14.65-1.7,1A.56.56,0,0,1,298.88,69.56Zm131.69-1.24a.51.51,0,0,1-.29-.08c-.53-.38-1.09-.73-1.65-1.07a.5.5,0,0,1,.51-.86c.58.35,1.16.72,1.71,1.1a.5.5,0,0,1,.13.7A.49.49,0,0,1,430.57,68.32ZM309.83,64.74a.5.5,0,0,1-.48-.37.48.48,0,0,1,.34-.61c.64-.19,1.3-.36,1.95-.52a.51.51,0,0,1,.61.37.5.5,0,0,1-.37.6c-.65.16-1.28.33-1.92.51Zm109.79-1.12h-.11c-.63-.13-1.28-.24-1.93-.33a.5.5,0,0,1-.43-.56.5.5,0,0,1,.56-.43c.68.09,1.35.21,2,.34a.5.5,0,0,1,.38.6A.48.48,0,0,1,419.62,63.62Zm-98-.62a.5.5,0,0,1-.5-.49.51.51,0,0,1,.49-.51h2a.5.5,0,0,1,0,1Zm86,0h-2a.5.5,0,0,1,0-1h2a.5.5,0,0,1,0,1Zm-12,0h-2a.5.5,0,0,1,0-1h2a.5.5,0,0,1,0,1Zm-12,0h-2a.5.5,0,0,1,0-1h2a.5.5,0,0,1,0,1Zm-12,0h-2a.5.5,0,0,1,0-1h2a.5.5,0,0,1,0,1Zm-12,0h-2a.5.5,0,0,1,0-1h2a.5.5,0,0,1,0,1Zm-12,0h-2a.5.5,0,0,1,0-1h2a.5.5,0,0,1,0,1Zm-12,0h-2a.5.5,0,0,1,0-1h2a.5.5,0,0,1,0,1Z" transform="translate(-38.49 -34)"/><path class="cls-45" d="M227.58,312h-2a.5.5,0,0,1,0-1h2a.5.5,0,1,1,0,1Zm-12,0h0c-.69,0-1.37-.12-2-.21a.51.51,0,0,1-.43-.57.5.5,0,0,1,.57-.42c.64.09,1.29.16,2,.2a.5.5,0,0,1,0,1Zm-11.28-3.69a.5.5,0,0,1-.27-.08c-.57-.37-1.13-.76-1.67-1.18a.5.5,0,1,1,.61-.79c.52.4,1.05.78,1.6,1.13a.5.5,0,0,1,.15.69A.51.51,0,0,1,204.31,308.27Zm-8.05-8.73a.49.49,0,0,1-.44-.26c-.32-.6-.62-1.22-.88-1.84a.5.5,0,1,1,.92-.4c.25.6.54,1.19.84,1.77a.51.51,0,0,1-.2.68A.52.52,0,0,1,196.26,299.54ZM193.5,288a.5.5,0,0,1-.5-.5v-2a.5.5,0,0,1,1,0v2A.5.5,0,0,1,193.5,288Zm0-12a.5.5,0,0,1-.5-.5v-2a.5.5,0,0,1,1,0v2A.5.5,0,0,1,193.5,276Zm0-12a.5.5,0,0,1-.5-.5v-2a.5.5,0,0,1,1,0v2A.5.5,0,0,1,193.5,264Z" transform="translate(-38.49 -34)"/></g></svg>