<?xml version="1.0" standalone="no"?>
<svg xmlns:xlink="http://www.w3.org/1999/xlink" id="wave" style="transform:rotate(0deg); transition: 0.3s" viewBox="0 0 1440 100" version="1.1" xmlns="http://www.w3.org/2000/svg"><defs><linearGradient id="sw-gradient-0" x1="0" x2="0" y1="1" y2="0"><stop stop-color="rgba(240, 127, 25, 1)" offset="0%"/><stop stop-color="rgba(255, 179, 11, 1)" offset="100%"/></linearGradient></defs><path style="transform:translate(0, 0px); opacity:1" fill="url(#sw-gradient-0)" d="M0,40L40,48.3C80,57,160,73,240,76.7C320,80,400,70,480,70C560,70,640,80,720,70C800,60,880,30,960,23.3C1040,17,1120,33,1200,40C1280,47,1360,43,1440,38.3C1520,33,1600,27,1680,25C1760,23,1840,27,1920,25C2000,23,2080,17,2160,26.7C2240,37,2320,63,2400,65C2480,67,2560,43,2640,41.7C2720,40,2800,60,2880,56.7C2960,53,3040,27,3120,16.7C3200,7,3280,13,3360,21.7C3440,30,3520,40,3600,41.7C3680,43,3760,37,3840,38.3C3920,40,4000,50,4080,56.7C4160,63,4240,67,4320,61.7C4400,57,4480,43,4560,38.3C4640,33,4720,37,4800,38.3C4880,40,4960,40,5040,46.7C5120,53,5200,67,5280,75C5360,83,5440,87,5520,80C5600,73,5680,57,5720,48.3L5760,40L5760,100L5720,100C5680,100,5600,100,5520,100C5440,100,5360,100,5280,100C5200,100,5120,100,5040,100C4960,100,4880,100,4800,100C4720,100,4640,100,4560,100C4480,100,4400,100,4320,100C4240,100,4160,100,4080,100C4000,100,3920,100,3840,100C3760,100,3680,100,3600,100C3520,100,3440,100,3360,100C3280,100,3200,100,3120,100C3040,100,2960,100,2880,100C2800,100,2720,100,2640,100C2560,100,2480,100,2400,100C2320,100,2240,100,2160,100C2080,100,2000,100,1920,100C1840,100,1760,100,1680,100C1600,100,1520,100,1440,100C1360,100,1280,100,1200,100C1120,100,1040,100,960,100C880,100,800,100,720,100C640,100,560,100,480,100C400,100,320,100,240,100C160,100,80,100,40,100L0,100Z"/></svg>