<?xml version="1.0" standalone="no"?>
<svg xmlns:xlink="http://www.w3.org/1999/xlink" id="wave" style="transform:rotate(180deg); transition: 0.3s" viewBox="0 0 1440 100" version="1.1" xmlns="http://www.w3.org/2000/svg"><defs><linearGradient id="sw-gradient-0" x1="0" x2="0" y1="1" y2="0"><stop stop-color="rgba(26, 64, 128, 1)" offset="0%"/><stop stop-color="rgba(41.543, 77.092, 136.963, 1)" offset="100%"/></linearGradient></defs><path style="transform:translate(0, 0px); opacity:1" fill="url(#sw-gradient-0)" d="M0,90L24,86.7C48,83,96,77,144,73.3C192,70,240,70,288,66.7C336,63,384,57,432,53.3C480,50,528,50,576,55C624,60,672,70,720,71.7C768,73,816,67,864,61.7C912,57,960,53,1008,50C1056,47,1104,43,1152,46.7C1200,50,1248,60,1296,56.7C1344,53,1392,37,1440,40C1488,43,1536,67,1584,70C1632,73,1680,57,1728,46.7C1776,37,1824,33,1872,31.7C1920,30,1968,30,2016,38.3C2064,47,2112,63,2160,63.3C2208,63,2256,47,2304,40C2352,33,2400,37,2448,45C2496,53,2544,67,2592,66.7C2640,67,2688,53,2736,53.3C2784,53,2832,67,2880,70C2928,73,2976,67,3024,55C3072,43,3120,27,3168,20C3216,13,3264,17,3312,18.3C3360,20,3408,20,3432,20L3456,20L3456,100L3432,100C3408,100,3360,100,3312,100C3264,100,3216,100,3168,100C3120,100,3072,100,3024,100C2976,100,2928,100,2880,100C2832,100,2784,100,2736,100C2688,100,2640,100,2592,100C2544,100,2496,100,2448,100C2400,100,2352,100,2304,100C2256,100,2208,100,2160,100C2112,100,2064,100,2016,100C1968,100,1920,100,1872,100C1824,100,1776,100,1728,100C1680,100,1632,100,1584,100C1536,100,1488,100,1440,100C1392,100,1344,100,1296,100C1248,100,1200,100,1152,100C1104,100,1056,100,1008,100C960,100,912,100,864,100C816,100,768,100,720,100C672,100,624,100,576,100C528,100,480,100,432,100C384,100,336,100,288,100C240,100,192,100,144,100C96,100,48,100,24,100L0,100Z"/></svg>